<?xml version="1.0" encoding="UTF-8"?>
<svg width="60px" height="60px" viewBox="0 0 60 60" version="1.1" xmlns="http://www.w3.org/2000/svg" xmlns:xlink="http://www.w3.org/1999/xlink">
    <!-- Generator: Sketch 46.2 (44496) - http://www.bohemiancoding.com/sketch -->
    <title>Artboard</title>
    <desc>Created with Sketch.</desc>
    <defs>
        <filter x="-50.0%" y="-50.0%" width="200.0%" height="200.0%" filterUnits="objectBoundingBox" id="filter-1">
            <feGaussianBlur stdDeviation="10" in="SourceGraphic"></feGaussianBlur>
        </filter>
    </defs>
    <g id="CBH_Desktop" stroke="none" stroke-width="1" fill="none" fill-rule="evenodd">
        <g id="Artboard">
            <g id="Group-4">
                <g id="Group">
                    <circle id="Oval-7" fill-opacity="0.1" fill="#000000" filter="url(#filter-1)" cx="30" cy="30" r="30"></circle>
                    <circle id="Oval-7" fill="#B62128" cx="30" cy="30" r="30"></circle>
                </g>
                <path d="M38.6955371,43 C38.5510921,43 38.406647,43 38.2622019,42.9711111 C35.5177458,42.6822222 32.8599566,41.9311111 30.3755015,40.7466667 C27.9488245,39.5911111 25.7821485,38.0311111 23.8754737,36.1244444 C21.9687989,34.2177778 20.4087922,32.0511111 19.2532317,29.6244444 C18.0687822,27.1688889 17.3176679,24.5111111 17.0287778,21.7666667 C16.8843327,20.5533333 17.2887789,19.34 18.1265602,18.4444444 C18.9643416,17.52 20.1199021,17 21.3621296,17 L23.9043627,17 C24.511032,17 25.0888122,17.3466667 25.5799255,18.04 C25.8688156,18.4444444 26.0421497,18.82 26.0710387,18.8777778 L26.1288167,18.9933333 L26.9665981,24.0488889 L26.9665981,24.1355556 C26.9665981,24.4244444 26.937709,25.4066667 26.5332629,25.9844444 L26.4754848,26.0711111 L25.0310342,27.5155556 C24.3376979,28.2088889 24.2510309,29.2777778 24.7999221,30.0866667 C26.1577057,32.08 28.0066025,33.9 30.1155004,35.3444444 C30.9243928,35.8933333 31.9932862,35.7777778 32.6866225,35.1133333 L34.0444061,33.7555556 C34.6799644,33.12 35.4888567,32.9177778 36.2110821,33.2066667 C36.3555271,33.2644444 36.4999722,33.3222222 36.6155282,33.3511111 C38.1177569,33.6977778 40.8333241,33.9 40.8333241,33.9288889 L40.9777691,33.9288889 L41.1222142,33.9866667 C41.5555494,34.1888889 43,34.94 43,36.1533333 L43,38.7244444 C43,39.9377778 42.4799978,41.0933333 41.5844384,41.9311111 C40.775546,42.5955556 39.7644306,43 38.6955371,43 Z" id="Shape" stroke="#FFFFFF" fill-rule="nonzero" transform="translate(30.000000, 30.000000) rotate(270.000000) translate(-30.000000, -30.000000) "></path>
            </g>
        </g>
    </g>
</svg>