<svg xmlns="http://www.w3.org/2000/svg" width="37.7" height="62.97" viewBox="0 0 37.7 62.97"><title>3Asset 3@2</title><g id="Layer_2" data-name="Layer 2"><g id="Layer_1-2" data-name="Layer 1"><circle cx="24.04" cy="14.9" r="4.89" style="fill:none;stroke:#b8202c;stroke-linecap:round;stroke-linejoin:round;stroke-width:2px"/><path d="M10.88.06l-.79,12.7a5.71,5.71,0,0,0,1.18,3.85l6.84,8.86.25,4.66A3.78,3.78,0,0,1,17.31,33l-.48.49a27.92,27.92,0,0,0-4.12,5.45L1.33,58.61A2.21,2.21,0,0,0,3.21,62h0a2.21,2.21,0,0,0,1.62-.71L21.62,43.08l8.36,7,2.94,10.44A1.92,1.92,0,0,0,34.77,62h0a1.92,1.92,0,0,0,1.92-2l-.61-9.63a9.2,9.2,0,0,0-1.84-5l-6.07-8,8.24-24A4.76,4.76,0,0,0,34,7.46L26.3,3.68" style="fill:none;stroke:#b8202c;stroke-miterlimit:10;stroke-width:2px"/></g></g></svg>