<svg xmlns="http://www.w3.org/2000/svg" width="83.5" height="46.24" viewBox="0 0 83.5 46.24"><title>3Asset 7@2</title><g id="Layer_2" data-name="Layer 2"><g id="Layer_1-2" data-name="Layer 1"><circle cx="63.91" cy="12.11" r="5.18" style="fill:none;stroke:#b8202c;stroke-miterlimit:10;stroke-width:2px"/><path d="M41,10.93l.46,15.46L38.78,43.67a1.85,1.85,0,0,1-1.83,1.57h0a1.85,1.85,0,0,1-1.85-1.87l.18-17.1-3.2-15.33" style="fill:none;stroke:#b8202c;stroke-miterlimit:10;stroke-width:2px"/><path d="M35.88,10.93h-16L2.57,8.29A1.85,1.85,0,0,1,1,6.45H1A1.85,1.85,0,0,1,2.87,4.6L20,4.78l10-3.16a13.38,13.38,0,0,1,8.68.2L40,2.34H82.5" style="fill:none;stroke:#b8202c;stroke-linecap:round;stroke-miterlimit:10;stroke-width:2px"/><path d="M56.6,6.37l-1,1a12.87,12.87,0,0,1-8.93,3.6H41" style="fill:none;stroke:#b8202c;stroke-linecap:round;stroke-miterlimit:10;stroke-width:2px"/></g></g></svg>