<svg xmlns="http://www.w3.org/2000/svg" width="48.66" height="58.15" viewBox="0 0 48.66 58.15"><title>3Asset 6@2</title><g id="Layer_2" data-name="Layer 2"><g id="Layer_1-2" data-name="Layer 1"><circle cx="24.47" cy="6.89" r="5.89" style="fill:none;stroke:#b8202c;stroke-miterlimit:10;stroke-width:2px"/><path d="M4,49.87a4.38,4.38,0,0,1,5.14-3.53L36.8,51.71a2.82,2.82,0,0,1,2.26,3.2h0a2.81,2.81,0,0,1-3,2.23L8,55a4.38,4.38,0,0,1-4-5.12Z" style="fill:none;stroke:#b8202c;stroke-miterlimit:10;stroke-width:2px"/><line x1="32.57" y1="31.73" x2="32.57" y2="47.32" style="fill:none;stroke:#b8202c;stroke-miterlimit:10;stroke-width:2px"/><path d="M14.88,35.72,4.8,40.08a2.72,2.72,0,0,1-3.49-1.24h0A2.72,2.72,0,0,1,2,35.47l8.15-5.56,2.79-8.44a4.44,4.44,0,0,1,4.21-3H31.51a4.44,4.44,0,0,1,4.21,3l2.79,8.44,8.15,5.56a2.72,2.72,0,0,1,.69,3.37h0a2.72,2.72,0,0,1-3.49,1.24L33.78,35.72" style="fill:none;stroke:#b8202c;stroke-miterlimit:10;stroke-width:2px"/><line x1="16.09" y1="31.73" x2="16.09" y2="47.32" style="fill:#070607;stroke:#b8202c;stroke-miterlimit:10;stroke-width:2px"/><path d="M39.1,55.11,40.61,55a4.38,4.38,0,0,0,4-5.12h0a4.38,4.38,0,0,0-5.14-3.53L24.28,49.29" style="fill:none;stroke:#b8202c;stroke-miterlimit:10;stroke-width:2px"/></g></g></svg>