<?xml version="1.0" encoding="utf-8"?><!DOCTYPE svg PUBLIC "-//W3C//DTD SVG 1.1//EN" "http://www.w3.org/Graphics/SVG/1.1/DTD/svg11.dtd"><svg width="2004" height="2004" viewBox="0 0 2004 2004" xmlns="http://www.w3.org/2000/svg" xmlns:xlink="http://www.w3.org/1999/xlink"><svg data-name="Layer 1" viewBox="-1 -1 52.77 36.24" width="52.77" height="36.24" id="adidas" x="1138.68" y="1031.39"><title>adidas</title><g data-name="&lt;Группа>" fill="currentColor"><path data-name="&lt;Контур>" d="M46.87 34.24c-2.41 0-3.84-1.24-3.9-3h2.23c0 .56.37 1.36 1.8 1.36a1.21 1.21 0 0 0 1.42-1c-.06-.68-.93-.74-1.86-.87a8.45 8.45 0 0 1-2.23-.62A2.29 2.29 0 0 1 43.15 28c0-1.55 1.36-2.79 3.59-2.79s3.53 1.11 3.65 2.85h-2.17c0-.43-.12-1.18-1.42-1.18-.87 0-1.42.19-1.49.74 0 .87 1.8.8 3.22 1.18s2.23 1.18 2.23 2.35c0 2.17-1.73 3-3.9 3M5.51 19.94L13 15.6l3.96 6.81H6.93l-1.42-2.47zM20.12 34.05h2.17v-8.66h-2.17v8.66z"/><path data-name="&lt;Составной контур>" d="M2.04 29.72a2.48 2.48 0 1 0 2.41-2.48 2.51 2.51 0 0 0-2.41 2.48m2.41 4.46a4.46 4.46 0 0 1 0-8.92 4.87 4.87 0 0 1 2.6.74v-.62h2.11v8.71H7.05v-.62a4.26 4.26 0 0 1-2.6.74"/><path data-name="&lt;Контур>" d="M30.34 0l-7.49 4.33 10.46 18.08h10.03L30.34 0z"/><path data-name="&lt;Составной контур>" d="M11.98 29.72a2.48 2.48 0 1 0 2.54-2.48 2.48 2.48 0 0 0-2.54 2.48m2.48 4.46a4.46 4.46 0 0 1 0-8.92A4.52 4.52 0 0 1 17 26v-3.59h2.17v11.68h-2.19v-.62a4.82 4.82 0 0 1-2.54.74"/><path data-name="&lt;Контур>" d="M14.24 12.2l7.55-4.28 8.36 14.49h-7.86v2.17h-2.17v-2.17L14.24 12.2z"/><path data-name="&lt;Составной контур>" d="M35.1 29.72a2.5 2.5 0 1 0 5 0 2.5 2.5 0 1 0-5 0m2.35 4.46a4.46 4.46 0 0 1 0-8.92 4.52 4.52 0 0 1 2.54.74v-.62h2.17v8.71h-2.18v-.62a4.08 4.08 0 0 1-2.54.74M25.2 29.72a2.48 2.48 0 1 0 2.48-2.48 2.48 2.48 0 0 0-2.48 2.48m5-7.31h2.11v11.68H30.2v-.62a4.48 4.48 0 1 1-2.54-8.17 4.87 4.87 0 0 1 2.6.74l-.06-3.59z"/></g></svg><svg width="35" height="26" viewBox="-1 -1 35 26" id="arr_left_long" x="1197.7" y="1002"><path d="M12.813.928L1.741 12l11.072 11.072M2.674 12.719h30" fill="none" stroke="#FFF" stroke-width="2" stroke-miterlimit="10"/></svg><svg viewBox="-1 -1 36 29.2" fill="currentColor" width="36" height="29.2" id="arrow-right-2" x="1161.7" y="1002"><path d="M20 27.1L17.9 25l11.4-11.4L18.1 2.3 20.2.2l13.3 13.4z"/><path d="M0 11.9h30.4v3H0z"/></svg><svg id="arrow-slider" viewBox="966.5 -19.5 37 67" width="37" height="67" x="1172.5" y="1084.43"><style>.adst0{fill:#fff}</style><path class="adst0" d="M971 10.5l28-28 3.5 3.5-28 28 28 28-3.5 3.5-28-28-3.5-3.5 3.5-3.5z"/></svg><svg fill="currentColor" viewBox="966.5 -19.5 37 67" width="37" height="67" id="arrow-slider-custom" x="1209.5" y="1084.43"><path d="M971 10.5l28-28 3.5 3.5-28 28 28 28-3.5 3.5-28-28-3.5-3.5 3.5-3.5z"/></svg><svg viewBox="-1 -1 1002 1002" width="1002" height="1002" id="arrow_down" x="1002"><path d="M10 10l980-.1-490 980.2L10 10z" color="#fff" fill="currentColor"/></svg><svg id="choise" data-name="Layer 1" viewBox="-1 -1 25.75 24" width="25.75" height="24" x="1288.07" y="1084.43"><defs><style>.cls-1{fill:#fff}.agcls-2{stroke:#000;stroke-miterlimit:10;stroke-width:2px}</style></defs><title>choise</title><g fill="currentColor"><path d="M18.88 0h2v22h-2zM10.88 0h2v22h-2zM2.88 0h2v22h-2z"/><circle cx="3.88" cy="9.02" r="3.28"/><circle cx="3.88" cy="9.02" r="1.88" color="#000"/><circle class="agcls-2" cx="19.88" cy="8.02" r="2.88"/><circle cx="19.88" cy="8.02" r="1.88" color="#000"/><circle class="agcls-2" cx="11.88" cy="15.02" r="2.88"/><circle cx="11.88" cy="15.02" r="1.88" color="#000"/></g></svg><svg viewBox="-1 -1 29.22 29.22" width="29.22" height="29.22" id="close-header-panel" x="1220.67" y="1031.39"><path opacity=".4" fill="currentColor" d="M27.224.707L26.517 0 13.612 12.905.707 0 0 .707l12.905 12.905L0 26.517l.707.707 12.905-12.905 12.905 12.905.707-.707-12.905-12.905z"/></svg><svg viewBox="-1 -1 29.22 29.22" width="29.22" height="29.22" id="close-media" x="1191.45" y="1031.39"><path fill="currentColor" d="M27.224.707L26.517 0 13.612 12.905.707 0 0 .707l12.905 12.905L0 26.517l.707.707 12.905-12.905 12.905 12.905.707-.707-12.905-12.905z"/></svg><svg viewBox="-1 -1 12.54 23.05" width="12.54" height="23.05" id="fb" x="1246.5" y="1123.8500000000001"><title>fb</title><path d="M6.7 5.02a1.77 1.77 0 0 1 1.5-1.65h1.87V0H7.26C4.92 0 3.34 2.12 3.34 4.46v3.11H-.03v4.21h3.37v9.26h3.37v-9.26h3.3l.51-4.21H6.7V5.01z" fill="currentColor"/></svg><svg data-name="Layer 1" viewBox="-1 -1 12.09 21.53" width="12.09" height="21.53" id="fb-about" x="1364" y="1084.43"><title>fb-about</title><path d="M3.87.57a3.35 3.35 0 0 0-1.55 1.6 7 7 0 0 0-.4 2.69v.41H0v3.88h1.92v10.33h4.62V9.16h2.59V5.28H6.54v-.34a1.53 1.53 0 0 1 .17-1 .94.94 0 0 1 .65-.17 6.22 6.22 0 0 1 1.45.18l.59.14.68-3.51-.49-.16a8 8 0 0 0-5.73.11" fill="currentColor"/></svg><svg viewBox="-1 -1 1002 1002" width="1002" height="1002" id="insta_icon" y="1002"><path d="M879 838.1V424.7h-86.1c8.5 26.8 12.8 54.7 12.8 83.6 0 53.6-13.6 103-40.8 148.3-27.2 45.3-64.2 81.1-111 107.5-46.8 26.4-97.8 39.6-153.1 39.6-83.8 0-155.5-28.8-215-86.5s-89.3-127.3-89.3-208.9c0-28.9 4.3-56.8 12.8-83.6h-90v413.4c0 11.1 3.7 20.3 11.2 27.8 7.5 7.5 16.7 11.2 27.8 11.2h682c10.6 0 19.8-3.7 27.4-11.2 7.4-7.5 11.2-16.7 11.3-27.8zm-181.2-340c0-52.7-19.2-97.7-57.7-134.9s-85-55.8-139.4-55.8c-54 0-100.3 18.6-138.8 55.8-38.5 37.2-57.7 82.2-57.7 134.9s19.2 97.7 57.7 134.9 84.7 55.8 138.8 55.8c54.5 0 100.9-18.6 139.4-55.8 38.4-37.2 57.7-82.2 57.7-134.9zM879 268.4V163.1c0-11.9-4.3-22.2-12.8-30.9s-18.9-13.1-31.3-13.1h-111c-12.3 0-22.8 4.4-31.3 13.1s-12.8 19-12.8 30.9v105.3c0 12.3 4.3 22.8 12.8 31.3s18.9 12.8 31.3 12.8h111c12.3 0 22.8-4.3 31.3-12.8 8.5-8.6 12.8-19 12.8-31.3zm111-132.7v728.6c0 34.4-12.3 64-37 88.7s-54.2 37-88.7 37H135.7c-34.4 0-64-12.3-88.7-37-24.7-24.7-37-54.2-37-88.7V135.7c0-34.4 12.3-64 37-88.7 24.7-24.7 54.2-37 88.7-37h728.6c34.4 0 64 12.3 88.7 37 24.7 24.7 37 54.3 37 88.7z" fill="currentColor"/></svg><svg data-name="Layer 1" viewBox="-1 -1 11.56 16" width="11.56" height="16" id="location" x="1358.0600000000002" y="1031.39"><title>location</title><g data-name="New Symbol 1" fill="currentColor"><path d="M4.78.39A4.41 4.41 0 0 0 .96 7.01l3.82 6.62L8.6 7.01A4.41 4.41 0 0 0 4.78.39zm0 6.62a2.53 2.53 0 1 1 2.53-2.53 2.53 2.53 0 0 1-2.53 2.53z"/><path d="M4.78 0A4.83 4.83 0 0 0 .37 2.95a4.93 4.93 0 0 0 .4 4.43l3.7 6.41a.39.39 0 0 0 .66 0q1.84-3.17 3.66-6.36a5 5 0 0 0 .48-4.4A4.82 4.82 0 0 0 4.81-.02a.385.385 0 0 0 0 .77 4.09 4.09 0 0 1 4 3.63 5.21 5.21 0 0 1-1 3.27c-1.1 1.92-2.21 3.83-3.33 5.75h.66c-1.1-1.92-2.21-3.83-3.33-5.75a5.54 5.54 0 0 1-1-3.27 4.08 4.08 0 0 1 4-3.63.38.38 0 0 0-.03-.75z"/><path d="M4.78 6.63a2.15 2.15 0 1 1 2.15-2.15 2.15 2.15 0 0 1-2.15 2.15.385.385 0 0 0 0 .77 2.91 2.91 0 1 0-2.91-2.91A3 3 0 0 0 4.78 7.4a.385.385 0 0 0 0-.77z"/></g></svg><svg viewBox="-430 217 84.8 92.3" width="84.8" height="92.3" id="log-out" x="1002" y="1084.43"><path fill="currentColor" d="M-426 219.038c.3 0 .8.1 1 .3l30 17c.6.4 1 1 1 1.8v50c0 .7-.4 1.4-1 1.8l-30 17c-.2.1-.7.3-1 .3-1 0-2-.9-2-2v-84c0-1.4 1-2.2 2-2.2zm2 5.4v77.2l26-14.8v-47.7l-26-14.7zm63.9 27.5c-.8 0-1.5.6-1.8 1.3-.3.7 0 1.6.6 2.2l6.1 5.5H-384c-1.2 0-2 1.1-2 2s.8 2 2 2h28.8l-6.1 5.5c-.6.5-.8 1.4-.6 2.2.3.7 1 1.3 1.8 1.3.5 0 1.1-.2 1.5-.5l10-9c.4-.4.7-.9.7-1.5s-.2-1.1-.7-1.5l-10-9c-.4-.3-1-.5-1.5-.5z"/></svg><svg viewBox="-1 -1 136.68 53.04" width="136.68" height="53.04" id="logo" x="1002" y="1031.39"><path fill="#b62028" d="M.001 28.497h134.675v22.539H.001z"/><path fill="currentColor" d="M7.338 2.04H0V.428h16.42V2.04H9.082v20.928h-.659l-1.085-1.816zM20.302 22.968h-1.744V.428h1.744v10.497h13.195V2.401l1.743 2.912v17.655h-1.743V12.537H20.302zM37.708.428h13.524V2.04h-11.78v8.721h10.957v1.611H39.452v8.984h12.437v1.611H37.708zM54.291.428h11.944c5.231 0 7.305 2.862 7.305 5.922 0 1.876-.921 3.588-3.026 4.574 3.192.757 4.705 2.797 4.705 5.626 0 3.884-2.665 6.417-7.569 6.417H54.291V.428zm6.482 5.198v3.456h4.606c1.185 0 1.811-.791 1.811-1.679 0-.955-.527-1.777-1.777-1.777h-4.64zm0 8.49v3.653h5.955c1.316 0 2.008-.823 2.008-1.811 0-1.053-.692-1.842-2.107-1.842h-5.856zM90.256 19.678h-7.898l-1.02 3.29H74.79L82.357.429h8.293l7.535 22.539h-6.91l-1.019-3.29zM86.307 6.779l-2.369 7.667h4.705l-2.336-7.667zM97.494 15.795h6.417c.099 1.282.854 2.533 3.224 2.533 1.58 0 2.6-.525 2.6-1.513 0-1.02-1.414-1.448-3.322-1.908-3.554-.856-8.655-1.909-8.655-7.569 0-4.442 3.456-7.338 8.754-7.338 5.561 0 8.851 2.994 9.212 7.799h-6.318c-.065-1.152-.46-2.6-2.993-2.6-1.58 0-2.27.691-2.27 1.48 0 1.416 1.809 1.842 4.046 2.337 3.521.789 8.062 1.776 8.062 7.107 0 4.146-3.225 7.271-9.279 7.271-5.859.001-9.149-2.697-9.478-7.599M117.4 22.968V.428h13.491l3.225 5.528h-10.234v2.961h9.741v5.462h-9.741v3.061h10.792v5.528z"/></svg><svg data-name="Layer 1" viewBox="-1 -1 159.7 29.39" width="159.7" height="29.39" id="logo-text" x="1002" y="1002"><title>logo-text</title><g data-name="&lt;Группа>" fill="currentColor"><path data-name="&lt;Контур>" d="M8.59 2.39H0V.5h19.23v1.89h-8.6v24.5h-.77l-1.27-2.12V2.39zM23.77 26.89h-2.04V.5h2.04v12.29h15.45V2.81l2.05 3.41v20.67h-2.05V14.68H23.77v12.21zM44.15.5h15.84v1.89H46.2V12.6h12.83v1.89H46.2v10.52h14.56v1.88H44.15V.5z"/><path data-name="&lt;Составной контур>" d="M63.57.5h14c6.13 0 8.55 3.35 8.55 6.93a5.71 5.71 0 0 1-3.55 5.37c3.74.89 5.51 3.28 5.51 6.59 0 4.55-3.12 7.51-8.86 7.51H63.57V.5zm7.59 6.09v4h5.39a2 2 0 0 0 2.12-2 1.92 1.92 0 0 0-2.08-2.08h-5.43zm0 9.94v4.27h7a2.11 2.11 0 0 0 2.35-2.12c0-1.23-.81-2.16-2.47-2.16h-6.86zM105.69 23.04h-9.25l-1.19 3.85h-7.67L96.44.5h9.71l8.82 26.39h-8.09zm-4.62-15.1l-2.77 9h5.51z"/><path data-name="&lt;Контур>" d="M114.16 18.49h7.51c.12 1.5 1 3 3.77 3 1.85 0 3-.61 3-1.77s-1.66-1.7-3.89-2.23c-4.16-1-10.14-2.24-10.14-8.86 0-5.2 4-8.59 10.25-8.59 6.51 0 10.36 3.51 10.79 9.13h-7.4c-.08-1.35-.54-3-3.5-3-1.85 0-2.66.81-2.66 1.73 0 1.66 2.12 2.16 4.74 2.74 4.12.92 9.44 2.08 9.44 8.32 0 4.86-3.78 8.51-10.87 8.51-6.86 0-10.71-3.16-11.1-8.9M137.47 26.89V.5h15.8l3.77 6.47h-11.98v3.47h11.41v6.4h-11.41v3.58h12.64v6.47h-20.23z"/></g></svg><svg viewBox="-1 -1 85.7 85.3" width="85.7" height="85.3" id="play" x="1086.8" y="1084.43"><g fill="currentColor"><path d="M32 58.4V25.3l29.3 15.5L32 58.4zm3-28.1v22.9L55.2 41 35 30.3z"/><path d="M41.9 82.8c-22.3 0-40.5-18.2-40.5-40.5S19.6 1.8 41.9 1.8 82.4 20 82.4 42.3 64.2 82.8 41.9 82.8zm0-78C21.2 4.8 4.4 21.6 4.4 42.3s16.8 37.5 37.5 37.5S79.4 63 79.4 42.3 62.6 4.8 41.9 4.8z"/></g></svg><svg data-name="Layer 1" viewBox="-1 -1 41.57 39.42" width="41.57" height="39.42" id="reebok" x="1246.5" y="1084.43"><title>reebok</title><g data-name="Layer 1-2"><path data-name="&lt;Составной контур>" d="M25.69 19.56l9 6 .63-1.08L21.22.01h-1.23l.61 10.69m-6.26 10.91l-9.63 4.82.59 1 28.29.05.57-1-9.66-4.91H14.34zm-1.21-2.07l5.12-8.83.67-10.7h-1.15L3.58 24.48l.6 1 8.95-6z" fill="#b62028"/><path data-name="&lt;Составной контур>" d="M37.46 30.71h1.94l-2.83 3.19 3 3.34h-2l-2.56-2.88v2.88h-1.56v-8.07h1.56v4.35zm-9.07 4.06a1.21 1.21 0 0 0 1.28 1.28h.1a1.21 1.21 0 0 0 1.29-1.28v-1.45a1.2 1.2 0 0 0-1.29-1.26h-.06a1.2 1.2 0 0 0-1.28 1.26v1.45zm-1.55-1.43a2.51 2.51 0 0 1 2.69-2.62h.32a2.54 2.54 0 0 1 2.75 2.61v1.44a2.55 2.55 0 0 1-2.75 2.65h-.32a2.51 2.51 0 0 1-2.69-2.65v-1.43zm-5 1.43a1.21 1.21 0 0 0 1.28 1.28h.07a1.22 1.22 0 0 0 1.29-1.28v-1.45a1.21 1.21 0 0 0-1.29-1.26h-.07a1.2 1.2 0 0 0-1.28 1.26v1.45zm4.22-1.41v1.41a2.58 2.58 0 0 1-2.74 2.65h-.35a2.6 2.6 0 0 1-1.73-.59l-.74.4h-.31v-8.07h1.58v2a2.2 2.2 0 0 1 1.51-.45 2.57 2.57 0 0 1 2.73 2.64m-9.57-1.33a1.14 1.14 0 0 0-1.29 1.2v.12h2.67v-.12a1.13 1.13 0 0 0-1.26-1.2h-.12zm2.92 2.48h-4.22a1.32 1.32 0 0 0 1.5 1.59 1.06 1.06 0 0 0 1.27-.77h1.44c-.09 1.31-1 2.08-2.79 2.08h-.17a2.67 2.67 0 0 1-2.81-2.65v-1.41a2.54 2.54 0 0 1 2.76-2.62h.28a2.54 2.54 0 0 1 2.75 2.61v1.18zm-9.49-2.48a1.15 1.15 0 0 0-1.31 1.2v.12h2.67v-.12a1.15 1.15 0 0 0-1.27-1.2h-.09zm2.9 2.48H8.58a1.34 1.34 0 0 0 1.52 1.59 1 1 0 0 0 1.25-.77h1.42c-.09 1.31-1 2.08-2.75 2.08h-.19a2.67 2.67 0 0 1-2.82-2.65v-1.41a2.56 2.56 0 0 1 2.79-2.62h.28a2.52 2.52 0 0 1 2.71 2.61v1.18zm-9.31-1.75c1.19 0 1.62-.31 1.62-1.12s-.75-1.1-1.62-1.1H1.58v2.23h1.88zm-3.48-3.6H3.5c1.41 0 3.07.47 3.07 2.44a2.19 2.19 0 0 1-2.31 2.27h-.44l3 3.38h-2l-3.21-3.63v3.62H.02v-8.07z" fill="currentColor"/></g></svg><svg viewBox="-1 -1 13 13" width="13" height="13" id="reset_btn-x" x="1286.8300000000002" y="1002"><g fill="none" stroke="currentColor" stroke-width="2" stroke-miterlimit="10"><path d="M1.611 1.611l7.778 7.778M1.611 9.389l7.778-7.778"/></g></svg><svg viewBox="-1 -1 1002 1002" width="1002" height="1002" id="rub"><path d="M780.5 314.2c0-46.4-15.1-84-45.2-112.7-30.2-28.8-69.8-43.1-119-43.1H393.5v311.8h222.7c49.2 0 88.9-14.4 119-43.1 30.2-29 45.3-66.5 45.3-112.9zm164.9 0c0 89.5-29.3 162.6-88 219.2S723 618.3 630.2 618.3H393.6v82.1H745c6.5 0 11.8 2.1 16 6.3 4.2 4.2 6.3 9.5 6.3 16v89.1c0 6.5-2.1 11.8-6.3 16-4.2 4.2-9.5 6.3-16 6.3H393.6v133.6c0 6.5-2.2 11.8-6.6 16s-9.6 6.3-15.7 6.3H255.1c-6.5 0-11.8-2.1-16-6.3s-6.3-9.5-6.3-16V834.1H76.9c-6.5 0-11.8-2.1-16-6.3-4.2-4.2-6.3-9.5-6.3-16v-89.1c0-6.5 2.1-11.8 6.3-16 4.2-4.2 9.5-6.3 16-6.3h155.9v-82.1H76.9c-6.5 0-11.8-2.1-16-6.3-4.2-4.2-6.3-9.5-6.3-16V492.3c0-6 2.1-11.2 6.3-15.7 4.2-4.4 9.5-6.6 16-6.6h155.9V32.3c0-6.5 2.1-11.8 6.3-16 4.2-4.2 9.5-6.3 16-6.3h375.1c92.8 0 168.5 28.3 227.2 84.9s88 129.7 88 219.3z" fill="currentColor"/></svg><svg id="schedule" data-name="Layer 1" viewBox="-1 -1 29 28" width="29" height="28" x="1278.89" y="1031.39"><defs><style>.aue44f61b3-0627-414a-af06-93d464cc6f39{fill:none;stroke:currentColor;stroke-miterlimit:10;stroke-width:2px}</style></defs><title>Base_menu</title><path class="aue44f61b3-0627-414a-af06-93d464cc6f39" d="M1 4.31h25V25H1zM4.49 4.31V0M22.51 4.31V0M1 10.78h25"/></svg><svg viewBox="-1 -1 25.75 24" fill="#fff" width="25.75" height="24" id="settings" x="1313.82" y="1084.43"><title>Ресурс 3</title><g data-name="Layer 1"><path class="avcls-1" d="M18.88 0h2v22h-2zM10.88 0h2v22h-2zM2.88 0h2v22h-2z"/><circle class="avcls-2" cx="3.88" cy="9.02" r="2.88"/><circle class="avcls-2" cx="19.88" cy="6.02" r="2.88"/><circle class="avcls-2" cx="11.88" cy="15.02" r="2.88"/></g></svg><svg viewBox="-1 -1 27.41 21.13" width="27.41" height="21.13" id="timetable-arrow" x="1307.89" y="1031.39"><defs><style>.awcls-1{fill:none;stroke:#fff;stroke-miterlimit:10;stroke-width:2px}</style></defs><title>Ресурс 2</title><g id="awСлой_2" data-name="Слой 2"><g id="awLayer_1" data-name="Layer 1"><path class="awcls-1" d="M10.27.71L1.41 9.56l8.86 8.86M1.41 9.6h24"/></g></g></svg><svg viewBox="-1 -1 22.76 18.86" width="22.76" height="18.86" id="twit" x="1335.3000000000002" y="1031.39"><title>twit</title><path class="axcls-1" d="M0 14.98a12.09 12.09 0 0 0 6.5 1.88A12.16 12.16 0 0 0 18.66 4.7v-.5a9.55 9.55 0 0 0 2.11-2.17 9.86 9.86 0 0 1-2.41.63A4.52 4.52 0 0 0 20.22.29a14.81 14.81 0 0 1-2.07.86l-.63.19a4.25 4.25 0 0 0-3.11-1.35 4.26 4.26 0 0 0-4.27 4.26 4.25 4.25 0 0 0 .11 1A12.84 12.84 0 0 1 1.5.82s-2 2.78 1.21 5.65a4.38 4.38 0 0 1-1.84-.55 4.05 4.05 0 0 0 3.37 4.23 3.9 3.9 0 0 1-1.88.08 4.2 4.2 0 0 0 3.92 3 8.19 8.19 0 0 1-6.26 1.79z" fill="currentColor"/></svg><svg data-name="Layer 1" viewBox="-1 -1 24.43 21.67" width="24.43" height="21.67" id="twit-about" x="1339.57" y="1084.43"><title>twit-about</title><path d="M.02 11.04a18.57 18.57 0 0 0 5.48 1.55 11.29 11.29 0 0 1-2.15-4.72 17.41 17.41 0 0 0 6.21 1.58h.72a9.64 9.64 0 0 0-.19-3.17C9.26 2.19 11.93.03 14.86.03a6.21 6.21 0 0 1 4.76 2.24 11.71 11.71 0 0 1 1.78-.13h1a20.58 20.58 0 0 0-1.65 2.19 8.26 8.26 0 0 1 .41 1.88c.91 8.88-5 13.46-10.81 13.46A10.39 10.39 0 0 1-.03 11.04" fill="currentColor"/></svg><svg id="user" data-name="Layer 1" viewBox="-1 -1 29 29" width="29" height="29" x="1249.89" y="1031.39"><defs><style>.\35 065e4a5-bc88-46bc-b3f8-d52249826378,.\38 00f07cc-81e9-4c9d-8fd1-0c80b4f6ce61,.azdd62dcb0-a614-40f7-be53-02cd121b38a1{fill:none;stroke:currentColor;stroke-miterlimit:10}.\35 065e4a5-bc88-46bc-b3f8-d52249826378{stroke-width:2px}.\38 00f07cc-81e9-4c9d-8fd1-0c80b4f6ce61{stroke-width:1.77px}.azdd62dcb0-a614-40f7-be53-02cd121b38a1{stroke-width:1.61px}</style></defs><title>user</title><path class="az5065e4a5-bc88-46bc-b3f8-d52249826378" d="M2347.42 4388.8a12.5 12.5 0 1 1 8.61 3.44 12.46 12.46 0 0 1-8.61-3.44" transform="translate(-2342.54 -4366.24)"/><path class="az800f07cc-81e9-4c9d-8fd1-0c80b4f6ce61" d="M2348.56 4388.76c.41-4.14 3.6-7.37 7.48-7.37s7.22 3.37 7.5 7.64" transform="translate(-2342.54 -4366.24)"/><circle class="azdd62dcb0-a614-40f7-be53-02cd121b38a1" cx="13.5" cy="9.5" r="2.9"/></svg><svg viewBox="-1 -1 25.63 15.57" width="25.63" height="15.57" id="vk" x="1261.2" y="1002"><title>vk</title><path class="bacls-1" d="M19.2 13.57h-.11a4.78 4.78 0 0 1-2.71-1.83c-.39-.44-1-1.44-1.72-1.33-1 .16-.52 1.91-.94 2.66s-1.81.5-2.82.39c-3.19-.34-4.82-2-6.25-3.87A34.75 34.75 0 0 1 .83 3.34 5.69 5.69 0 0 1 0 .9 3.66 3.66 0 0 1 2.21.62a6.84 6.84 0 0 1 2.38.11 4.37 4.37 0 0 1 .89 1.55 20 20 0 0 0 1.83 3.16c.31.44.78 1.27 1.33 1.16s.59-1.42.61-2.27a6.81 6.81 0 0 0-.28-2.66A2.51 2.51 0 0 0 7.75.9c.4-.81 1.5-.89 2.82-.89 1.11 0 2.67-.12 3.1.61s.14 2.09.11 3.1-.23 2.3.55 2.82a2.14 2.14 0 0 0 1.27-1.11 15.12 15.12 0 0 0 1.83-3.16 3.31 3.31 0 0 1 .94-1.6 9.44 9.44 0 0 1 2.71-.06c.8 0 2.23-.22 2.49.33s-.41 1.62-.61 1.94a33.27 33.27 0 0 1-2.27 3 3.16 3.16 0 0 0-.94 1.77 2.27 2.27 0 0 0 .94 1.27 17.89 17.89 0 0 1 2.16 2.27 2.94 2.94 0 0 1 .77 1.49c-.17 1.35-3.35.5-4.43.83" fill="currentColor"/></svg><svg data-name="Layer 1" viewBox="-1 -1 28.5 17.21" width="28.5" height="17.21" id="vk-about" x="1232.7" y="1002"><title>vk-about</title><path d="M21.53 15.21h-.15a5.36 5.36 0 0 1-3-2c-.44-.5-1.12-1.62-1.92-1.49-1.14.18-.58 2.14-1.06 3-.39.68-2 .56-3.16.43-3.58-.38-5.41-2.29-7-4.34a39 39 0 0 1-4.28-7 6.38 6.38 0 0 1-.93-2.73C.61.61 1.56.77 2.51.77a7.67 7.67 0 0 1 2.67.12 4.9 4.9 0 0 1 1 1.74 22.46 22.46 0 0 0 2 3.54c.34.49.87 1.43 1.49 1.3s.66-1.6.68-2.54a7.63 7.63 0 0 0-.31-3 2.82 2.82 0 0 0-1.36-.87c.45-.9 1.68-1 3.16-1 1.25 0 3-.14 3.47.68s.16 2.34.13 3.47-.26 2.58.62 3.17a2.4 2.4 0 0 0 1.43-1.24 17 17 0 0 0 2-3.54c.27-.59.56-1.61 1.06-1.8a10.58 10.58 0 0 1 3-.06c.9 0 2.5-.25 2.79.37s-.47 1.81-.68 2.17a37.3 37.3 0 0 1-2.55 3.41 3.55 3.55 0 0 0-1.05 2 2.54 2.54 0 0 0 1.05 1.43 20.07 20.07 0 0 1 2.42 2.54 3.29 3.29 0 0 1 .87 1.67c-.19 1.51-3.76.57-5 .93" fill="currentColor"/></svg></svg>