<svg xmlns="http://www.w3.org/2000/svg" viewBox="0 0 512 445.78"><defs><style>.cls-1{fill:#5d5d5d;}</style></defs><title>tg adidas</title><g id="Layer_2" data-name="Layer 2"><g id="Layer_1-2" data-name="Layer 1"><g id="_Group_" data-name="&lt;Group&gt;"><path id="_Compound_Path_" data-name="&lt;Compound Path&gt;" class="cls-1" d="M9,213.75l118,44,45.66,146.85a13.89,13.89,0,0,0,22.06,6.64l65.76-53.61a19.62,19.62,0,0,1,23.92-.67L403,443.11a13.9,13.9,0,0,0,21.78-8.41L511.7,16.76A13.91,13.91,0,0,0,493.08,1L8.91,187.74C-3,192.34-2.94,209.26,9,213.75Zm156.28,20.59,230.57-142c4.14-2.54,8.41,3.06,4.85,6.36L210.45,275.57a39.45,39.45,0,0,0-12.22,23.6l-6.48,48a6,6,0,0,1-11.64.84l-24.93-87.59A23.21,23.21,0,0,1,165.32,234.34Z"/></g></g></g></svg>